# xmcd
#
# Track frame offsets:
#	150
#	40601
#	83260
#	134888
#	180879
#	216869
#	250956
#
# Disc length: 3648 seconds
#
# Revision: 1
# Processed by: cddbd v1.5.2PL0 Copyright (c) Steve Scherf et al.
# Submitted via: audiograbber 1.83.01
#
DISCID=540e3e07
DTITLE=Cosmopolitics - Idio-sin-chronic
DYEAR=1900
DGENRE=
TTITLE0=The Silent C
TTITLE1=Asian Lydians
TTITLE2=Idio-sin-chronic
TTITLE3=Tim's Epic
TTITLE4=Blue Feather
TTITLE5=Spanish Inquisition
TTITLE6=Riff J
EXTD=
EXTT0=
EXTT1=
EXTT2=
EXTT3=
EXTT4=
EXTT5=
EXTT6=
PLAYORDER=
